<svg width="397" height="587" viewBox="0 0 397 587" fill="none" xmlns="http://www.w3.org/2000/svg">
<g id="logo">
<path id="Vector" d="M0.389701 215.285C28.4453 214.777 58.899 219.991 84.8594 230.317C132.914 249.431 169.067 286.811 186.346 335.64C188.769 342.341 190.888 349.089 192.81 355.946C194.841 363.189 195.666 371.871 198.753 378.672C201.436 355.212 211.178 328.578 222.321 307.883C255.814 245.679 326.638 212.809 395.906 215.617C396.557 228.011 396.219 241.833 396.25 254.318L396.379 323.266L396.334 383.735C396.315 393.356 396.657 406.851 396.078 416.175C394.781 417.234 395.103 416.892 393.047 417.013C298.605 420.628 223.042 472.647 202.308 568.36C201.038 574.215 199.996 580.396 198.56 586.188C196.193 578.889 194.317 569.847 192.443 562.351C187.786 543.719 181.672 528.137 172.356 511.563C143.655 460.508 95.0687 431.013 38.4579 420.355C31.1036 418.971 23.0139 418.168 15.4998 417.408C10.9287 416.945 5.3008 416.956 0.852545 415.8C-0.107967 410.635 0.211526 396.549 0.21767 390.645L0.107076 351.17L0.16442 263.104C0.193092 248.417 -0.347579 229.701 0.389701 215.285Z" fill="#FEFEFE"/>
<path id="Vector_2" d="M195.97 0.0338313C232.199 -1.11714 262.54 27.2415 263.834 63.4665C265.13 99.6895 236.893 130.143 200.674 131.581C164.25 133.029 133.59 104.597 132.287 68.1687C130.984 31.741 159.538 1.193 195.97 0.0338313Z" fill="#FEFEFE"/>
<path id="Vector_3" d="M326.525 73.8706C362.691 72.0212 393.548 99.7512 395.557 135.907C397.566 172.062 369.972 203.042 333.827 205.211C297.454 207.392 266.238 179.588 264.217 143.206C262.194 106.825 290.137 75.7322 326.525 73.8706Z" fill="#FEFEFE"/>
<path id="Vector_4" d="M64.3016 73.762C100.557 72.6499 130.868 101.103 132.051 137.354C133.235 173.608 104.844 203.976 68.5942 205.231C32.2401 206.491 1.76794 178.003 0.582149 141.647C-0.605691 105.291 27.9434 74.8761 64.3016 73.762Z" fill="#FEFEFE"/>
</g>
</svg>
