<svg width="390" height="350" viewBox="0 0 390 350" fill="none" xmlns="http://www.w3.org/2000/svg">
<g id="AI">
<path id="Vector" d="M215.389 0.0182479C219.092 0.445377 230.107 0.15598 234.28 0.146241L271.139 0.0641674C277.418 0.053037 285.703 -0.371316 291.369 1.11877C305.353 5.47493 310.585 15.6565 310.499 29.2731C310.423 41.191 310.548 53.0504 310.547 64.7471L310.462 158.009L298.444 158.11C298.012 128.743 299.052 98.66 298.135 69.2688C297.979 64.3144 289.119 61.2883 285.574 66.8619C280.269 75.2027 275.064 83.6966 269.847 92.146L237.839 144.037L141.417 300.418C131.657 316.158 120.2 333.811 111.166 349.755L0 349.712L146.338 112.314L190.792 40.2727C198.594 27.63 208.223 12.8599 215.389 0.0182479Z" fill="#FEFEFD"/>
<path id="Vector_2" d="M305.06 186.335C305.694 187.021 308.029 200.337 308.776 202.772C312.212 213.786 317.664 224.065 324.851 233.089C341.712 254.005 362.927 263.629 389.104 266.423C383.16 267.15 377.706 268.016 371.983 269.485C335.903 278.748 309.682 309.908 305.37 346.663C305.271 346.788 305.172 346.912 305.072 347.036C299.574 300.721 266.217 271.578 220.864 266.513C226.325 265.902 230.988 265.496 236.389 264.162C275.015 254.613 299.716 224.923 305.06 186.335Z" fill="#FEFEFD"/>
</g>
</svg>
